<?xml version="1.0"?>
<svg xmlns="http://www.w3.org/2000/svg" xmlns:xlink="http://www.w3.org/1999/xlink" xmlns:svgjs="http://svgjs.com/svgjs" version="1.1" width="512" height="512" x="0" y="0" viewBox="0 0 24 24" style="enable-background:new 0 0 512 512" xml:space="preserve" class=""><g><g xmlns="http://www.w3.org/2000/svg"><path d="m14.257 4.793-12.702 12.703c-.064.064-.11.145-.132.232l-1.408 5.651c-.042.17.008.351.132.475.094.094.222.146.353.146.04 0 .081-.005.121-.015l5.651-1.408c.088-.022.168-.068.232-.132l12.703-12.702z" fill="#5f6368" data-original="#000000" style="" class=""/><path d="m22.354 3.061-1.414-1.414c-.945-.945-2.592-.944-3.536 0l-1.732 1.732 4.95 4.95 1.732-1.732c.472-.472.732-1.1.732-1.768s-.26-1.296-.732-1.768z" fill="#5f6368" data-original="#000000" style="" class=""/></g></g></svg>
