<?xml version="1.0"?>
<svg xmlns="http://www.w3.org/2000/svg" xmlns:xlink="http://www.w3.org/1999/xlink" xmlns:svgjs="http://svgjs.com/svgjs" version="1.1" width="512" height="512" x="0" y="0" viewBox="0 0 354.243 354.243" style="enable-background:new 0 0 512 512" xml:space="preserve" class=""><g>
<g xmlns="http://www.w3.org/2000/svg">
	<path style="" d="M316.736,69.399c-17.03-22.246-38.4-39.662-63.516-51.766C229.282,6.098,202.538,0,175.88,0   C136.687,0,99.52,12.593,68.399,36.417C57.514,44.751,47.64,54.348,38.984,64.912l-3.305-18.726   c-0.346-1.958-1.456-3.7-3.085-4.841c-1.629-1.14-3.646-1.587-5.605-1.241L7.294,43.581c-4.079,0.72-6.803,4.61-6.082,8.689   l12.328,69.848c0.345,1.959,1.455,3.7,3.084,4.841c1.27,0.888,2.773,1.355,4.301,1.355c0.435,0,0.871-0.038,1.304-0.114   l69.848-12.331c4.079-0.72,6.802-4.61,6.082-8.689l-3.477-19.695c-0.346-1.959-1.455-3.7-3.085-4.841   c-1.629-1.14-3.646-1.587-5.604-1.241l-17.91,3.162c6.396-7.442,13.604-14.241,21.591-20.356   c24.968-19.113,54.785-29.216,86.228-29.216c44.75,0,85.951,20.295,113.041,55.682c47.638,62.237,35.764,151.628-26.47,199.267   c-25.036,19.168-54.806,29.299-86.087,29.299c-6.312,0-12.712-0.425-19.023-1.263c-37.636-4.999-71.073-24.355-94.152-54.503   c-14.046-18.346-23.488-39.998-27.305-62.615c-0.69-4.084-4.557-6.841-8.644-6.147l-19.721,3.328   c-4.084,0.689-6.836,4.559-6.148,8.644c4.762,28.217,16.528,55.212,34.026,78.066c28.761,37.571,70.431,61.693,117.335,67.922   c7.851,1.042,15.816,1.571,23.672,1.571c39.01-0.001,76.121-12.626,107.321-36.511C361.307,258.364,376.106,146.962,316.736,69.399   z" fill="#5f6368" data-original="#231f20" class=""/>
	<path style="" d="M185.986,60.797h-20c-4.142,0-7.5,3.358-7.5,7.5v118.777c0,4.142,3.358,7.5,7.5,7.5h99.737   c4.142,0,7.5-3.358,7.5-7.5v-20c0-4.142-3.358-7.5-7.5-7.5h-72.237V68.297C193.486,64.155,190.128,60.797,185.986,60.797z" fill="#5f6368" data-original="#231f20" class=""/>
</g>
<g xmlns="http://www.w3.org/2000/svg">
</g>
<g xmlns="http://www.w3.org/2000/svg">
</g>
<g xmlns="http://www.w3.org/2000/svg">
</g>
<g xmlns="http://www.w3.org/2000/svg">
</g>
<g xmlns="http://www.w3.org/2000/svg">
</g>
<g xmlns="http://www.w3.org/2000/svg">
</g>
<g xmlns="http://www.w3.org/2000/svg">
</g>
<g xmlns="http://www.w3.org/2000/svg">
</g>
<g xmlns="http://www.w3.org/2000/svg">
</g>
<g xmlns="http://www.w3.org/2000/svg">
</g>
<g xmlns="http://www.w3.org/2000/svg">
</g>
<g xmlns="http://www.w3.org/2000/svg">
</g>
<g xmlns="http://www.w3.org/2000/svg">
</g>
<g xmlns="http://www.w3.org/2000/svg">
</g>
<g xmlns="http://www.w3.org/2000/svg">
</g>
</g></svg>
